<svg width="136" height="39" viewBox="0 0 136 39" fill="none" xmlns="http://www.w3.org/2000/svg">
<g clip-path="url(#clip0_2_6)" filter="url(#filter0_d_2_6)">
<path fill-rule="evenodd" clip-rule="evenodd" d="M35.2538 4.15451C36.7682 4.15451 38.1385 4.53593 39.3649 5.29065C40.5913 6.05079 41.5618 7.12471 42.2763 8.52055C42.9908 9.91639 43.3481 11.534 43.3481 13.3735C43.3481 15.213 42.9908 16.8415 42.2763 18.2589C41.5618 19.6764 40.5913 20.7747 39.3649 21.5538C38.1385 22.3328 36.7682 22.7224 35.2538 22.7224C33.9528 22.7224 32.8064 22.4519 31.8146 21.9108C30.8228 21.3698 30.0176 20.6881 29.3991 19.8658V31H24.92V4.44666H29.3991V7.04356C29.975 6.22391 30.7695 5.53411 31.7826 4.98227C32.7957 4.43043 33.9528 4.15451 35.2538 4.15451ZM53.074 4.15451C54.759 4.15451 56.268 4.5224 57.601 5.25819C58.9341 5.99398 59.9685 7.03815 60.7044 8.39071C61.4402 9.74326 61.8081 11.296 61.8081 13.0489C61.8081 13.6981 61.7655 14.2824 61.6802 14.8018H48.7229C48.8296 16.1003 49.2775 17.1174 50.0666 17.8532C50.8558 18.589 51.8263 18.9569 52.978 18.9569C54.6417 18.9569 55.8254 18.2319 56.5293 16.7819H61.3602C60.8483 18.5132 59.8672 19.9361 58.4169 21.0506C56.9665 22.1678 55.1855 22.7224 53.074 22.7224C51.3677 22.7224 49.8374 22.3382 48.483 21.57C47.1286 20.8017 46.0728 19.7143 45.3157 18.3076C44.5585 16.901 44.1799 15.2779 44.1799 13.4384C44.1799 11.58 44.5532 9.94614 45.2997 8.53678C46.0462 7.13012 47.0913 6.05079 48.435 5.29065C49.7787 4.53593 51.325 4.15451 53.074 4.15451ZM123.266 4.15451C124.951 4.15451 126.46 4.5224 127.793 5.25819C129.126 5.99398 130.16 7.03815 130.896 8.39071C131.632 9.74326 132 11.296 132 13.0489C132 13.6981 131.957 14.2824 131.872 14.8018H118.915C119.021 16.1003 119.469 17.1174 120.259 17.8532C121.048 18.589 122.018 18.9569 123.17 18.9569C124.834 18.9569 126.017 18.2319 126.721 16.7819H131.552C131.04 18.5132 130.059 19.9361 128.609 21.0506C127.158 22.1678 125.377 22.7224 123.266 22.7224C121.56 22.7224 120.029 22.3382 118.675 21.57C117.32 20.8017 116.265 19.7143 115.508 18.3076C114.75 16.901 114.372 15.2779 114.372 13.4384C114.372 11.58 114.745 9.94614 115.492 8.53678C116.238 7.13012 117.283 6.05079 118.627 5.29065C119.971 4.53593 121.517 4.15451 123.266 4.15451ZM8.42572 16.3326L16.6639 21.1748C16.344 21.4453 15.9708 21.6887 15.5709 21.9052C14.5577 22.4462 13.3847 22.7167 12.0516 22.7167C10.7452 22.7167 9.51882 22.4191 8.42572 21.797V16.3326ZM90.2484 4.44747V14.3482C90.2484 15.7765 90.6003 16.8747 91.3042 17.643C92.008 18.4112 92.9678 18.7954 94.1836 18.7954C95.4206 18.7954 96.3911 18.4112 97.095 17.643C97.7988 16.8747 98.1507 15.7765 98.1507 14.3482V4.44747H102.662V22.431H98.1507V20.1587C97.5749 20.9378 96.823 21.5492 95.8952 21.9928C94.9674 22.4364 93.9596 22.6583 92.8719 22.6583C91.4855 22.6583 90.2591 22.3607 89.1926 21.7656C88.1262 21.1704 87.2891 20.294 86.6812 19.1362C86.0733 17.9784 85.7694 16.5988 85.7694 14.9974V4.44747H90.2484ZM73.0697 4.18805V8.95986H71.886C70.4783 8.95986 69.4172 9.29529 68.7027 9.96616C67.9881 10.637 67.6309 11.8056 67.6309 13.472V22.4313H63.1518V4.44774H67.6309V7.23941C68.2068 6.28721 68.9586 5.5406 69.8864 4.99958C70.8142 4.45856 71.8753 4.18805 73.0697 4.18805ZM114.436 4.18805V8.95986H113.252C111.844 8.95986 110.783 9.29529 110.069 9.96616C109.354 10.637 108.997 11.8056 108.997 13.472V22.4313H104.518V4.44774H108.997V7.23941C109.573 6.28721 110.325 5.5406 111.252 4.99958C112.18 4.45856 113.241 4.18805 114.436 4.18805ZM80.6524 0V4.4472H84.6195V8.18025H80.6524V16.8799C80.6524 17.4858 80.7963 17.924 81.0843 18.1946C81.3722 18.4651 81.8574 18.6003 82.5399 18.6003H84.6195V22.4308H81.8041C78.0289 22.4308 76.1413 20.5696 76.1413 16.8474V8.18025H74.0298V4.4472H76.1413V0H80.6524ZM22.4494 12.572V22.4186H17.9437V19.7946C17.7304 20.1192 17.4904 20.4168 17.1972 20.6873L12.8781 18.1716L22.4494 12.572ZM7.75919 11.5167V21.3904C6.63943 20.6329 5.73296 19.605 5.06644 18.2524C4.39991 16.9269 4.05332 15.4121 4 13.7079L7.75919 11.5167ZM34.0701 8.14725C33.2596 8.14725 32.4971 8.35824 31.7826 8.78024C31.0681 9.20224 30.4922 9.81359 30.0549 10.6143C29.6177 11.415 29.3991 12.3564 29.3991 13.4384C29.3991 14.5205 29.6177 15.4646 30.0549 16.2626C30.4922 17.0633 31.0681 17.6746 31.7826 18.0966C32.4971 18.5186 33.2596 18.7296 34.0701 18.7296C34.9019 18.7296 35.6751 18.5132 36.3896 18.0804C37.1041 17.6476 37.68 17.0308 38.1172 16.2301C38.5545 15.4294 38.7731 14.4772 38.7731 13.3735C38.7731 12.2915 38.5545 11.3555 38.1172 10.5656C37.68 9.77572 37.1041 9.17519 36.3896 8.76401C35.6751 8.35283 34.9019 8.14725 34.0701 8.14725ZM22.4488 4.45667V11.7875L16.6634 15.1689V5.70102C17.17 6.07973 17.5965 6.51255 17.9431 6.99947V4.45667H22.4488ZM7.09267 5.9177L11.545 8.5146L4.02666 12.9239C4.05332 11.2738 4.39991 9.81305 5.06644 8.54165C5.59966 7.48666 6.29284 6.62102 7.09267 5.9177ZM52.946 7.88755C51.8369 7.88755 50.9038 8.2284 50.1466 8.91009C49.3895 9.59177 48.9256 10.5386 48.7549 11.7505H57.1691C57.1478 10.5818 56.7319 9.64587 55.9214 8.94255C55.1109 8.23922 54.1191 7.88755 52.946 7.88755ZM123.138 7.88755C122.029 7.88755 121.096 8.2284 120.339 8.91009C119.581 9.59177 119.117 10.5386 118.947 11.7505H127.361C127.34 10.5818 126.924 9.64587 126.113 8.94255C125.303 8.23922 124.311 7.88755 123.138 7.88755ZM12.1044 4.15937C13.4108 4.15937 14.5572 4.42989 15.5703 4.97091C15.7036 5.05206 15.8636 5.13321 15.9969 5.24142V10.3541L7.70534 5.48488C7.78532 5.40372 7.89196 5.34962 7.97195 5.29552C9.19835 4.53809 10.5847 4.15937 12.1044 4.15937Z" fill="white"/>
</g>
<defs>
<filter id="filter0_d_2_6" x="0" y="0" width="136" height="39" filterUnits="userSpaceOnUse" color-interpolation-filters="sRGB">
<feFlood flood-opacity="0" result="BackgroundImageFix"/>
<feColorMatrix in="SourceAlpha" type="matrix" values="0 0 0 0 0 0 0 0 0 0 0 0 0 0 0 0 0 0 127 0" result="hardAlpha"/>
<feOffset dy="4"/>
<feGaussianBlur stdDeviation="2"/>
<feComposite in2="hardAlpha" operator="out"/>
<feColorMatrix type="matrix" values="0 0 0 0 0 0 0 0 0 0 0 0 0 0 0 0 0 0 0.25 0"/>
<feBlend mode="normal" in2="BackgroundImageFix" result="effect1_dropShadow_2_6"/>
<feBlend mode="normal" in="SourceGraphic" in2="effect1_dropShadow_2_6" result="shape"/>
</filter>
<clipPath id="clip0_2_6">
<rect width="128" height="31" fill="white" transform="translate(4)"/>
</clipPath>
</defs>
</svg>
